<svg xmlns="http://www.w3.org/2000/svg" viewBox="0 0 818 264" width="818" height="264" role="img" aria-label="Studio Dentistico Annicchiarico">
<title>Studio Dentistico Annicchiarico</title>
<rect width="818" height="264" fill="#0F2A2E"/>
<circle cx="132.00" cy="132.00" r="100.00" fill="none" stroke="#FFFFFF" stroke-width="2.80"/><circle cx="132.00" cy="132.00" r="70.00" fill="none" stroke="#FFFFFF" stroke-width="1.20"/><path fill="#FFFFFF" d="M56.27 96.03Q55.77 97.09 55.01 97.66Q54.26 98.23 53.35 98.45L52.92 97.07Q53.68 96.89 54.22 96.48Q54.76 96.07 55.09 95.38Q55.48 94.56 55.31 93.97Q55.13 93.38 54.52 93.08Q54.19 92.92 53.89 92.93Q53.59 92.94 53.29 93.16Q52.98 93.37 52.66 93.82L52.16 94.51Q51.61 95.26 51.04 95.67Q50.47 96.08 49.85 96.12Q49.22 96.17 48.55 95.85Q47.79 95.49 47.42 94.86Q47.05 94.23 47.08 93.42Q47.1 92.61 47.53 91.71Q47.99 90.75 48.66 90.2Q49.33 89.65 50.21 89.46L50.6 90.83Q50.01 90.95 49.53 91.3Q49.05 91.66 48.71 92.36Q48.36 93.1 48.47 93.64Q48.57 94.18 49.13 94.44Q49.49 94.61 49.79 94.58Q50.09 94.54 50.37 94.31Q50.66 94.08 50.97 93.67L51.48 92.98Q52.05 92.21 52.62 91.81Q53.2 91.42 53.81 91.39Q54.42 91.35 55.09 91.68Q55.89 92.05 56.31 92.7Q56.73 93.35 56.73 94.2Q56.74 95.05 56.27 96.03ZM57.31 78.04 55.76 80.38 62.48 84.85 61.63 86.12 54.91 81.65 53.36 83.98 52.23 83.24 56.19 77.29ZM60.43 71.86 61.44 70.74 65.74 74.64Q66.33 75.18 66.86 75.39Q67.39 75.61 67.89 75.47Q68.39 75.32 68.89 74.77Q69.38 74.23 69.48 73.72Q69.57 73.21 69.3 72.7Q69.04 72.19 68.45 71.65L64.15 67.75L65.16 66.64L69.28 70.37Q70.3 71.3 70.73 72.15Q71.16 73.01 70.95 73.88Q70.75 74.74 69.88 75.7Q69.01 76.66 68.17 76.94Q67.34 77.22 66.45 76.87Q65.56 76.51 64.55 75.59ZM76.75 68.64 70.85 61.29 73.44 59.21Q74.39 58.45 75.41 58.3Q76.44 58.14 77.48 58.65Q78.51 59.16 79.5 60.39Q80.48 61.62 80.76 62.74Q81.03 63.86 80.66 64.83Q80.28 65.8 79.34 66.56ZM77.09 66.63 78.5 65.5Q79.05 65.06 79.27 64.49Q79.5 63.93 79.37 63.29Q79.23 62.66 78.7 61.99L77.76 60.82Q77.22 60.15 76.63 59.88Q76.04 59.61 75.44 59.71Q74.84 59.82 74.29 60.26L72.88 61.39ZM90.57 58.9 87.07 61 86.43 59.94 87.53 59.28 83.95 53.32 82.86 53.98 82.22 52.92 85.72 50.82 86.36 51.88 85.26 52.54 88.83 58.5 89.93 57.84ZM99.25 54.82Q98.12 55.3 97.06 55.15Q96 54.99 95.11 54.19Q94.23 53.38 93.61 51.92Q92.99 50.46 93.02 49.26Q93.06 48.07 93.69 47.2Q94.31 46.33 95.44 45.85Q96.58 45.37 97.63 45.53Q98.69 45.68 99.58 46.49Q100.46 47.29 101.08 48.75Q101.7 50.21 101.66 51.41Q101.63 52.6 101 53.47Q100.38 54.34 99.25 54.82ZM98.72 53.57Q99.4 53.29 99.76 52.76Q100.13 52.24 100.17 51.55Q100.21 50.86 99.88 50.08L99.29 48.7Q98.96 47.91 98.44 47.46Q97.91 47.01 97.28 46.91Q96.65 46.81 95.97 47.1Q95.31 47.38 94.93 47.91Q94.55 48.43 94.52 49.12Q94.48 49.81 94.81 50.6L95.4 51.98Q95.73 52.76 96.25 53.21Q96.77 53.66 97.41 53.76Q98.05 53.86 98.72 53.57ZM115.63 49.54 114.18 40.23 117.46 39.71Q118.66 39.53 119.63 39.91Q120.59 40.28 121.24 41.24Q121.88 42.2 122.13 43.75Q122.37 45.31 122.05 46.42Q121.72 47.53 120.92 48.18Q120.11 48.84 118.92 49.02ZM116.93 47.97 118.71 47.69Q119.41 47.58 119.89 47.2Q120.37 46.83 120.57 46.21Q120.77 45.59 120.64 44.75L120.4 43.26Q120.27 42.42 119.89 41.89Q119.51 41.36 118.94 41.15Q118.37 40.94 117.67 41.05L115.89 41.33ZM134.83 47.99 128.8 48.01 128.76 38.59 134.79 38.56 134.79 39.91 130.29 39.93 130.3 42.57 134.39 42.55 134.39 43.9 130.3 43.91 130.32 46.66 134.82 46.64ZM146.39 49.22 144.12 43.62 143.4 41.49 143.36 41.48 143.05 43.5 142.29 48.6 140.85 48.39 142.24 39.07 143.93 39.32 146.2 44.92 146.93 47.06 146.97 47.06 147.27 45.04 148.04 39.94 149.48 40.15 148.08 49.47ZM162.69 45.12 160.01 44.29 157.62 52 156.16 51.55 158.56 43.84 155.88 43.01 156.28 41.72 163.1 43.83ZM168.77 56.45 165.06 54.75 165.58 53.63 166.74 54.16 169.62 47.84 168.46 47.31 168.98 46.18 172.69 47.88 172.17 49.01 171.01 48.47 168.13 54.79 169.29 55.32ZM176.36 60.86Q175.37 60.24 174.89 59.42Q174.4 58.61 174.29 57.69L175.71 57.41Q175.8 58.19 176.15 58.77Q176.49 59.36 177.14 59.76Q177.91 60.24 178.52 60.14Q179.13 60.03 179.49 59.45Q179.68 59.14 179.71 58.84Q179.73 58.54 179.55 58.22Q179.38 57.9 178.97 57.52L178.34 56.95Q177.66 56.32 177.32 55.71Q176.98 55.1 177 54.47Q177.03 53.84 177.42 53.21Q177.87 52.5 178.53 52.2Q179.19 51.91 180 52.02Q180.8 52.14 181.65 52.67Q182.55 53.23 183.02 53.96Q183.49 54.69 183.58 55.58L182.17 55.82Q182.12 55.22 181.82 54.7Q181.53 54.18 180.86 53.77Q180.18 53.34 179.63 53.38Q179.08 53.42 178.75 53.95Q178.54 54.28 178.54 54.58Q178.54 54.89 178.74 55.2Q178.94 55.51 179.31 55.87L179.94 56.45Q180.64 57.1 180.97 57.72Q181.29 58.34 181.25 58.94Q181.22 59.55 180.82 60.19Q180.35 60.93 179.66 61.28Q178.97 61.62 178.12 61.53Q177.28 61.43 176.36 60.86ZM194.12 63.94 191.97 62.13 186.76 68.3 185.6 67.32 190.81 61.15 188.66 59.34 189.53 58.31 194.99 62.91ZM195.3 76.74 192.54 73.74 193.46 72.9 194.32 73.84 199.44 69.15 198.58 68.21 199.49 67.37 202.25 70.38 201.33 71.21 200.47 70.27 195.35 74.96 196.21 75.91ZM200.98 84.35Q200.28 83.34 200.22 82.3Q200.15 81.26 200.76 80.26Q201.36 79.25 202.66 78.35Q203.96 77.44 205.14 77.2Q206.31 76.96 207.29 77.36Q208.27 77.76 208.97 78.77Q209.67 79.77 209.7 80.76Q209.74 81.75 209.15 82.74L207.83 82.1Q208.25 81.52 208.29 80.87Q208.33 80.22 207.86 79.54Q207.24 78.66 206.26 78.58Q205.28 78.5 204.21 79.25L203.02 80.08Q201.95 80.82 201.71 81.75Q201.47 82.68 202.09 83.57Q202.57 84.26 203.25 84.45Q203.92 84.64 204.63 84.45L204.73 85.89Q203.62 86.08 202.65 85.71Q201.68 85.35 200.98 84.35ZM207.37 95.29Q206.84 94.19 206.94 93.12Q207.04 92.05 207.8 91.13Q208.55 90.2 209.98 89.51Q211.41 88.81 212.6 88.79Q213.8 88.76 214.7 89.34Q215.6 89.92 216.14 91.02Q216.68 92.13 216.57 93.19Q216.47 94.26 215.72 95.18Q214.96 96.11 213.53 96.81Q212.11 97.5 210.91 97.53Q209.71 97.55 208.81 96.97Q207.91 96.4 207.37 95.29ZM208.59 94.7Q208.92 95.36 209.46 95.7Q210 96.04 210.69 96.04Q211.38 96.05 212.15 95.67L213.49 95.02Q214.26 94.64 214.69 94.1Q215.11 93.55 215.18 92.91Q215.24 92.28 214.92 91.62Q214.6 90.97 214.06 90.62Q213.52 90.27 212.82 90.27Q212.13 90.26 211.36 90.64L210.02 91.29Q209.25 91.67 208.83 92.21Q208.41 92.76 208.34 93.4Q208.28 94.04 208.59 94.7Z"/><path fill="#FFFFFF" d="M83.03 200.29 83.9 199.16 83.85 199.13Q83.33 199.58 82.53 199.54Q81.73 199.51 80.88 198.86Q79.99 198.18 79.62 197.2Q79.26 196.22 79.51 195.06Q79.77 193.89 80.72 192.63Q81.68 191.38 82.75 190.82Q83.82 190.27 84.9 190.38Q85.99 190.5 86.97 191.24Q87.97 192.01 88.33 192.99Q88.69 193.98 88.48 195.06L87.04 194.88Q87.22 194.18 87.03 193.51Q86.83 192.84 86.14 192.32Q85.55 191.87 84.9 191.79Q84.26 191.71 83.64 192.01Q83.02 192.31 82.49 193L81.57 194.21Q81.04 194.9 80.92 195.57Q80.79 196.25 81.05 196.86Q81.31 197.48 81.93 197.95Q82.41 198.31 82.92 198.45Q83.42 198.59 83.9 198.45Q84.38 198.32 84.73 197.85L85.18 197.26L83.64 196.08L84.43 195.05L87.14 197.11L84.1 201.11ZM92.46 201.8 90.66 205.14 89.32 204.42 93.78 196.12 97.36 198.05Q98.1 198.45 98.48 199.04Q98.85 199.62 98.85 200.33Q98.84 201.04 98.42 201.82Q97.95 202.69 97.22 203.09Q96.48 203.48 95.57 203.29L95.48 207.74L93.97 206.93L94.12 202.7ZM93.07 200.66 95.21 201.81Q95.55 201.99 95.85 202Q96.16 202.02 96.42 201.85Q96.67 201.69 96.85 201.36L97.16 200.79Q97.34 200.45 97.33 200.15Q97.33 199.85 97.15 199.6Q96.97 199.35 96.63 199.17L94.5 198.02ZM104.26 211.46Q103.1 211.06 102.42 210.23Q101.74 209.4 101.63 208.21Q101.51 207.02 102.04 205.52Q102.56 204.02 103.39 203.16Q104.22 202.3 105.27 202.08Q106.32 201.85 107.47 202.26Q108.64 202.66 109.32 203.49Q109.99 204.32 110.11 205.51Q110.23 206.69 109.7 208.2Q109.18 209.69 108.35 210.55Q107.52 211.41 106.47 211.64Q105.43 211.87 104.26 211.46ZM104.71 210.18Q105.41 210.42 106.03 210.28Q106.66 210.14 107.15 209.65Q107.64 209.17 107.92 208.37L108.41 206.95Q108.7 206.15 108.61 205.46Q108.53 204.77 108.13 204.28Q107.72 203.78 107.03 203.54Q106.34 203.3 105.71 203.44Q105.08 203.57 104.59 204.06Q104.1 204.54 103.82 205.35L103.32 206.76Q103.04 207.57 103.13 208.25Q103.21 208.94 103.62 209.44Q104.03 209.94 104.71 210.18ZM121.61 207.3 118.85 206.78 117.37 214.72 115.87 214.44 117.35 206.51 114.59 205.99 114.84 204.66 121.86 205.97ZM132.29 208.01 129.49 207.89 129.14 215.95 127.61 215.89 127.96 207.82 125.16 207.7 125.22 206.35 132.35 206.66ZM144.9 215.11 143.31 215.27 142.22 212.82 138.72 213.19 138.16 215.81 136.62 215.98 138.83 206.27 140.73 206.07ZM141.71 211.55 140.5 208.87 139.92 207.56 139.85 207.57 139.57 208.97 138.94 211.85ZM156.16 212.49 155.79 211.11 155.74 211.12Q155.78 211.81 155.26 212.43Q154.74 213.04 153.7 213.32Q152.62 213.61 151.63 213.3Q150.63 212.99 149.86 212.07Q149.09 211.16 148.69 209.64Q148.28 208.11 148.49 206.93Q148.7 205.74 149.45 204.95Q150.21 204.16 151.39 203.84Q152.61 203.52 153.61 203.83Q154.61 204.15 155.34 204.98L154.32 206.01Q153.88 205.43 153.23 205.18Q152.58 204.93 151.75 205.16Q151.03 205.35 150.57 205.81Q150.11 206.27 149.97 206.95Q149.83 207.62 150.05 208.46L150.45 209.93Q150.67 210.77 151.13 211.28Q151.59 211.79 152.23 211.96Q152.88 212.13 153.63 211.93Q154.21 211.77 154.63 211.45Q155.05 211.13 155.23 210.67Q155.41 210.22 155.26 209.64L155.07 208.93L153.2 209.44L152.86 208.18L156.15 207.29L157.45 212.14ZM168.17 207.88 163.25 210 159.51 201.36 160.91 200.75 164.12 208.16 167.63 206.64ZM176.31 203.39 172.79 205.46 172.16 204.39 173.26 203.75 169.74 197.76 168.64 198.4 168.02 197.34 171.53 195.27 172.16 196.34 171.06 196.98 174.58 202.97 175.68 202.33ZM186.04 196.39 181.28 200.09 175.5 192.64 180.26 188.94 181.09 190.01 177.53 192.77 179.15 194.85 182.38 192.35 183.2 193.41 179.97 195.92 181.66 198.08 185.22 195.32Z"/><circle cx="47.50" cy="132.00" r="3.20" fill="#5FE3B8"/><circle cx="216.50" cy="132.00" r="3.20" fill="#5FE3B8"/><path transform="translate(98.38 94.00) scale(0.6724)" d="M50 22C45 10 33 4 22 8C9 13 5 30 9 46C12 58 17 66 19 78C21 92 23 106 30 110C37 114 40 102 42 92C44 82 47 76 50 76C53 76 56 82 58 92C60 102 63 114 70 110C77 106 79 92 81 78C83 66 88 58 91 46C95 30 91 13 78 8C67 4 55 10 50 22Z" fill="#FFFFFF"/><path fill="#FFFFFF" d="M329.64 139.45Q331.15 139.79 332.63 140.2Q334.12 140.61 335.55 141.1V144H311.69V141.11L320.16 139.36L303.8 91.11H305.91L288.96 139.05Q291.51 139.43 293.93 139.96Q296.34 140.49 298.79 141.1V144H276.47V141.11L282.28 138.99L301.19 88.13H310.93ZM290.96 126.13V121.03H320.39V126.13ZM338.12 144V141.55Q339.22 140.94 340.5 140.4Q341.79 139.87 343.65 139.46L344.48 111.4L339.93 105.4Q345.27 102.22 351.24 101.45L352.04 110.57V139.66L357.93 141.39V144ZM363.76 144V141.55Q364.84 140.91 366.14 140.37Q367.43 139.84 369.26 139.46L370.13 112.24L377.66 108.54V139.66L383.64 141.39V144ZM351.46 112.36 351.28 110.67Q353.64 107.74 356.24 105.55Q358.85 103.36 361.75 101.74Q362.37 101.68 362.93 101.65Q363.49 101.62 363.99 101.62Q368.11 101.62 371.5 103.3Q374.89 104.97 377.66 108.54L370.13 112.24Q365.88 108.71 361.09 108.71Q356.24 108.71 351.46 112.36ZM386.88 144V141.55Q387.98 140.94 389.27 140.4Q390.55 139.87 392.41 139.46L393.24 111.4L388.69 105.4Q394.03 102.22 400.01 101.45L400.81 110.57V139.66L406.7 141.39V144ZM412.53 144V141.55Q413.6 140.91 414.9 140.37Q416.2 139.84 418.03 139.46L418.89 112.24L426.42 108.54V139.66L432.4 141.39V144ZM400.22 112.36 400.04 110.67Q402.4 107.74 405 105.55Q407.61 103.36 410.52 101.74Q411.13 101.68 411.69 101.65Q412.25 101.62 412.75 101.62Q416.87 101.62 420.26 103.3Q423.65 104.97 426.42 108.54L418.89 112.24Q414.65 108.71 409.85 108.71Q405.01 108.71 400.22 112.36ZM435.64 144V141.55Q436.85 140.88 438.22 140.35Q439.59 139.81 441.17 139.46L442.01 111.4L437.45 105.4Q440.19 103.75 443.21 102.74Q446.24 101.73 449.57 101.45V139.66L455.46 141.39V144ZM446.85 82.55Q448.42 83.94 449.52 85.87Q450.63 87.8 450.9 89.78Q449.66 91.31 447.7 92.44Q445.73 93.56 443.75 93.83Q442.22 92.56 441.09 90.63Q439.97 88.69 439.56 86.65Q440.95 85.12 442.87 84Q444.79 82.87 446.85 82.55ZM477.37 144.76Q472.3 144.76 468.39 142.07Q464.48 139.37 462.3 134.59Q460.11 129.82 460.11 123.55Q460.11 116.74 462.61 111.82Q465.11 106.9 469.56 104.24Q474.01 101.59 479.78 101.59Q482.63 101.59 485.49 102.18Q488.35 102.76 491 103.97L489.75 110.08Q483.91 107.52 477.05 107.52Q474.86 107.52 472.71 108.12Q470.57 108.72 468.6 109.83L472.12 106.85Q470.28 110.42 469.3 114.39Q468.31 118.36 468.31 122.28Q468.31 127.35 469.94 130.9Q471.57 134.46 474.48 136.36Q477.39 138.26 481.24 138.26Q483.54 138.26 486.1 137.55Q488.65 136.84 491.43 135.4L492.05 136.89Q485.92 144.76 477.37 144.76ZM487.78 116.65 483.66 103.97H491L490.78 116.65ZM515.21 144.76Q510.14 144.76 506.23 142.07Q502.32 139.37 500.14 134.59Q497.95 129.82 497.95 123.55Q497.95 116.74 500.45 111.82Q502.95 106.9 507.4 104.24Q511.85 101.59 517.62 101.59Q520.47 101.59 523.33 102.18Q526.19 102.76 528.84 103.97L527.59 110.08Q521.75 107.52 514.89 107.52Q512.7 107.52 510.55 108.12Q508.41 108.72 506.44 109.83L509.96 106.85Q508.12 110.42 507.14 114.39Q506.15 118.36 506.15 122.28Q506.15 127.35 507.78 130.9Q509.41 134.46 512.32 136.36Q515.23 138.26 519.08 138.26Q521.38 138.26 523.94 137.55Q526.49 136.84 529.27 135.4L529.89 136.89Q523.76 144.76 515.21 144.76ZM525.62 116.65 521.5 103.97H528.84L528.62 116.65ZM534.47 144V141.55Q535.57 140.94 536.87 140.4Q538.17 139.87 540 139.46L540.98 90.67L536.28 84.28Q539.02 82.66 542.04 81.64Q545.06 80.61 548.4 80.33V139.66L554.32 141.39V144ZM560.15 144V141.55Q561.19 140.91 562.49 140.37Q563.79 139.84 565.62 139.46L566.48 112.24L574.01 108.54V139.66L579.99 141.39V144ZM547.82 112.36 547.66 110.67Q550.02 107.74 552.62 105.55Q555.23 103.36 558.14 101.74Q558.75 101.68 559.31 101.65Q559.87 101.62 560.38 101.62Q564.46 101.62 567.85 103.3Q571.24 104.97 574.01 108.54L566.48 112.24Q562.3 108.71 557.44 108.71Q552.66 108.71 547.82 112.36ZM583.22 144V141.55Q584.43 140.88 585.8 140.35Q587.16 139.81 588.75 139.46L589.58 111.4L585.03 105.4Q587.77 103.75 590.79 102.74Q593.81 101.73 597.14 101.45V139.66L603.03 141.39V144ZM594.43 82.55Q595.99 83.94 597.1 85.87Q598.21 87.8 598.48 89.78Q597.23 91.31 595.27 92.44Q593.31 93.56 591.33 93.83Q589.79 92.56 588.67 90.63Q587.55 88.69 587.14 86.65Q588.53 85.12 590.44 84Q592.36 82.87 594.43 82.55ZM640.19 144.56Q637.42 144.56 635.04 142.55Q632.66 140.53 631.77 136.56L632.76 111.25Q627 106.88 618.67 106.88Q617.1 106.88 615.57 107.08Q614.04 107.27 612.63 107.59L617.2 105.32L615.58 117.73Q612.29 117.28 610.6 115.79Q608.91 114.31 608.91 112.04Q608.91 109.15 611.03 106.77Q613.14 104.4 616.73 102.99Q620.31 101.57 624.6 101.57Q629.29 101.57 633.24 103.41Q637.2 105.25 640.17 108.6V137.52L648.27 137Q648.01 139.32 646.81 141.03Q645.62 142.73 643.9 143.65Q642.18 144.56 640.19 144.56ZM621.47 144.88Q615.36 144.8 611.66 141.68Q607.96 138.56 607.96 133.49Q607.96 131.1 609.03 129.3Q610.1 127.5 612.93 125.97Q615.76 124.45 620.92 122.82Q626.08 121.19 634.19 119.2V123.74L614.67 127.3L617.29 126.07Q616.86 127.36 616.66 128.75Q616.45 130.14 616.45 131.33Q616.45 134.79 618.05 136.61Q619.66 138.43 622.95 138.43Q625.31 138.43 627.93 137.52Q630.54 136.61 633.44 134.64V135.95Q630.89 138.76 628.03 140.98Q625.18 143.21 621.47 144.88ZM679.26 110.23Q671.06 109.5 663.57 113.05V111.55Q665.9 108.6 668.44 106.26Q670.98 103.92 673.83 102.02Q675.45 102 676.94 102.38Q678.43 102.77 679.74 103.64ZM650.3 144V141.55Q651.43 140.88 652.73 140.36Q654.03 139.84 655.83 139.46L656.66 111.4L652.11 105.4Q657.45 102.22 663.42 101.45L664.22 111.62V139.42L673.48 141.39V144ZM682.63 144V141.55Q683.85 140.88 685.21 140.35Q686.58 139.81 688.16 139.46L689 111.4L684.44 105.4Q687.18 103.75 690.21 102.74Q693.23 101.73 696.56 101.45V139.66L702.45 141.39V144ZM693.84 82.55Q695.41 83.94 696.52 85.87Q697.62 87.8 697.89 89.78Q696.65 91.31 694.69 92.44Q692.72 93.56 690.74 93.83Q689.21 92.56 688.09 90.63Q686.96 88.69 686.55 86.65Q687.94 85.12 689.86 84Q691.78 82.87 693.84 82.55ZM724.36 144.76Q719.29 144.76 715.38 142.07Q711.47 139.37 709.29 134.59Q707.1 129.82 707.1 123.55Q707.1 116.74 709.6 111.82Q712.1 106.9 716.55 104.24Q721 101.59 726.77 101.59Q729.63 101.59 732.48 102.18Q735.34 102.76 737.99 103.97L736.74 110.08Q730.9 107.52 724.04 107.52Q721.85 107.52 719.7 108.12Q717.56 108.72 715.59 109.83L719.11 106.85Q717.28 110.42 716.29 114.39Q715.31 118.36 715.31 122.28Q715.31 127.35 716.93 130.9Q718.56 134.46 721.47 136.36Q724.38 138.26 728.23 138.26Q730.54 138.26 733.09 137.55Q735.64 136.84 738.42 135.4L739.04 136.89Q732.91 144.76 724.36 144.76ZM734.77 116.65 730.65 103.97H737.99L737.77 116.65ZM763.36 144.82Q757.76 144.82 753.62 142.22Q749.49 139.63 747.23 134.91Q744.97 130.18 744.97 123.82Q744.97 117.13 747.38 112.12Q749.78 107.11 754.14 104.34Q758.5 101.56 764.31 101.56Q770.03 101.56 774.21 104.18Q778.39 106.79 780.7 111.47Q783.02 116.14 783.02 122.47Q783.02 129.23 780.57 134.26Q778.13 139.29 773.73 142.05Q769.34 144.82 763.36 144.82ZM763.92 139.58Q767.21 139.58 769.64 137.67Q772.07 135.76 773.4 132.03Q774.73 128.3 774.73 123.01Q774.73 117.87 773.41 114.35Q772.09 110.83 769.62 108.99Q767.14 107.15 763.64 107.15Q761.4 107.15 758.73 107.98Q756.06 108.81 752.6 110.46L757.21 107.19Q755.24 110.93 754.24 114.88Q753.24 118.83 753.24 123.4Q753.24 128.57 754.58 132.18Q755.92 135.79 758.31 137.68Q760.7 139.58 763.92 139.58Z"/><path fill="#5FE3B8" d="M285.19 186.25Q283.37 186.25 282.06 185.57Q280.76 184.9 279.85 183.77L281.49 182.24Q282.25 183.19 283.19 183.67Q284.13 184.16 285.32 184.16Q286.72 184.16 287.44 183.52Q288.16 182.88 288.16 181.82Q288.16 181.25 287.95 180.84Q287.73 180.42 287.23 180.14Q286.73 179.86 285.88 179.7L284.58 179.46Q283.16 179.19 282.21 178.67Q281.25 178.14 280.77 177.29Q280.29 176.45 280.29 175.29Q280.29 173.98 280.92 173.04Q281.55 172.1 282.71 171.6Q283.86 171.09 285.42 171.09Q287.08 171.09 288.29 171.67Q289.51 172.25 290.37 173.34L288.7 174.81Q288.14 174.07 287.32 173.62Q286.51 173.18 285.29 173.18Q284.02 173.18 283.34 173.69Q282.65 174.2 282.65 175.16Q282.65 175.78 282.9 176.18Q283.15 176.57 283.67 176.82Q284.18 177.07 284.97 177.23L286.27 177.49Q287.74 177.77 288.68 178.31Q289.62 178.86 290.07 179.69Q290.52 180.53 290.52 181.69Q290.52 183.06 289.89 184.08Q289.26 185.11 288.07 185.68Q286.88 186.25 285.19 186.25ZM310.33 173.44H305.97V186H303.59V173.44H299.23V171.34H310.33ZM319.69 171.34H322.03V180.38Q322.03 181.61 322.33 182.45Q322.64 183.29 323.33 183.71Q324.02 184.14 325.17 184.14Q326.32 184.14 327 183.71Q327.69 183.29 328 182.45Q328.31 181.61 328.31 180.38V171.34H330.64V179.99Q330.64 182.13 330.11 183.52Q329.57 184.92 328.36 185.58Q327.15 186.25 325.13 186.25Q323.11 186.25 321.93 185.58Q320.74 184.92 320.21 183.52Q319.69 182.13 319.69 179.99ZM341.31 186V171.34H346.48Q348.37 171.34 349.76 172.15Q351.16 172.97 351.92 174.6Q352.68 176.22 352.68 178.67Q352.68 181.12 351.92 182.75Q351.16 184.37 349.76 185.19Q348.37 186 346.48 186ZM343.68 183.9H346.48Q347.59 183.9 348.41 183.43Q349.24 182.97 349.69 182.07Q350.15 181.16 350.15 179.84V177.5Q350.15 176.17 349.69 175.27Q349.24 174.36 348.41 173.9Q347.59 173.44 346.48 173.44H343.68ZM368.48 186H362.13V184.07H364.12V173.27H362.13V171.34H368.48V173.27H366.49V184.07H368.48ZM384.26 186.25Q382.35 186.25 380.93 185.38Q379.5 184.52 378.72 182.83Q377.94 181.14 377.94 178.67Q377.94 176.2 378.72 174.51Q379.5 172.82 380.93 171.96Q382.35 171.09 384.26 171.09Q386.17 171.09 387.59 171.96Q389.01 172.82 389.79 174.51Q390.57 176.2 390.57 178.67Q390.57 181.14 389.79 182.83Q389.01 184.52 387.59 185.38Q386.17 186.25 384.26 186.25ZM384.26 184.14Q385.4 184.14 386.25 183.61Q387.09 183.09 387.57 182.12Q388.05 181.16 388.05 179.84V177.51Q388.05 176.17 387.57 175.21Q387.09 174.24 386.25 173.72Q385.4 173.2 384.26 173.2Q383.13 173.2 382.28 173.72Q381.42 174.24 380.95 175.21Q380.47 176.17 380.47 177.51V179.84Q380.47 181.16 380.95 182.12Q381.42 183.09 382.28 183.61Q383.13 184.14 384.26 184.14ZM412.77 186V171.34H417.95Q419.83 171.34 421.22 172.15Q422.62 172.97 423.38 174.6Q424.14 176.22 424.14 178.67Q424.14 181.12 423.38 182.75Q422.62 184.37 421.22 185.19Q419.83 186 417.95 186ZM415.15 183.9H417.95Q419.05 183.9 419.87 183.43Q420.7 182.97 421.16 182.07Q421.62 181.16 421.62 179.84V177.5Q421.62 176.17 421.16 175.27Q420.7 174.36 419.87 173.9Q419.05 173.44 417.95 173.44H415.15ZM443.62 186H434.24V171.34H443.62V173.44H436.61V177.54H442.97V179.63H436.61V183.9H443.62ZM462.55 186 457.77 177.91 456.16 174.79H456.1V177.97V186H453.83V171.34H456.48L461.27 179.43L462.88 182.55H462.94V179.37V171.34H465.21V186ZM485.77 173.44H481.4V186H479.03V173.44H474.66V171.34H485.77ZM500.93 186H494.58V184.07H496.57V173.27H494.58V171.34H500.93V173.27H498.94V184.07H500.93ZM515.44 186.25Q513.61 186.25 512.31 185.57Q511 184.9 510.09 183.77L511.73 182.24Q512.49 183.19 513.43 183.67Q514.37 184.16 515.56 184.16Q516.97 184.16 517.69 183.52Q518.4 182.88 518.4 181.82Q518.4 181.25 518.19 180.84Q517.97 180.42 517.47 180.14Q516.97 179.86 516.13 179.7L514.82 179.46Q513.41 179.19 512.45 178.67Q511.5 178.14 511.01 177.29Q510.53 176.45 510.53 175.29Q510.53 173.98 511.16 173.04Q511.79 172.1 512.95 171.6Q514.11 171.09 515.66 171.09Q517.32 171.09 518.54 171.67Q519.75 172.25 520.61 173.34L518.95 174.81Q518.38 174.07 517.57 173.62Q516.75 173.18 515.53 173.18Q514.27 173.18 513.58 173.69Q512.89 174.2 512.89 175.16Q512.89 175.78 513.14 176.18Q513.39 176.57 513.91 176.82Q514.42 177.07 515.21 177.23L516.52 177.49Q517.98 177.77 518.92 178.31Q519.86 178.86 520.31 179.69Q520.77 180.53 520.77 181.69Q520.77 183.06 520.13 184.08Q519.5 185.11 518.31 185.68Q517.12 186.25 515.44 186.25ZM540.58 173.44H536.21V186H533.84V173.44H529.47V171.34H540.58ZM555.74 186H549.39V184.07H551.38V173.27H549.39V171.34H555.74V173.27H553.75V184.07H555.74ZM571.35 186.25Q569.45 186.25 568.07 185.41Q566.69 184.56 565.94 182.89Q565.2 181.23 565.2 178.76Q565.2 176.3 565.94 174.59Q566.69 172.88 568.07 171.98Q569.45 171.09 571.35 171.09Q573.26 171.09 574.55 171.93Q575.84 172.77 576.58 174.4L574.59 175.5Q574.22 174.46 573.43 173.83Q572.64 173.2 571.35 173.2Q569.67 173.2 568.7 174.38Q567.73 175.56 567.73 177.59V179.85Q567.73 181.87 568.7 183Q569.67 184.14 571.35 184.14Q572.66 184.14 573.5 183.45Q574.34 182.76 574.74 181.69L576.66 182.84Q575.91 184.43 574.59 185.34Q573.26 186.25 571.35 186.25ZM591.97 186.25Q590.06 186.25 588.64 185.38Q587.21 184.52 586.43 182.83Q585.65 181.14 585.65 178.67Q585.65 176.2 586.43 174.51Q587.21 172.82 588.64 171.96Q590.06 171.09 591.97 171.09Q593.89 171.09 595.3 171.96Q596.72 172.82 597.5 174.51Q598.28 176.2 598.28 178.67Q598.28 181.14 597.5 182.83Q596.72 184.52 595.3 185.38Q593.89 186.25 591.97 186.25ZM591.97 184.14Q593.12 184.14 593.96 183.61Q594.81 183.09 595.28 182.12Q595.76 181.16 595.76 179.84V177.51Q595.76 176.17 595.28 175.21Q594.81 174.24 593.96 173.72Q593.12 173.2 591.97 173.2Q590.84 173.2 589.99 173.72Q589.13 174.24 588.66 175.21Q588.18 176.17 588.18 177.51V179.84Q588.18 181.16 588.66 182.12Q589.13 183.09 589.99 183.61Q590.84 184.14 591.97 184.14Z"/>
</svg>
