<svg xmlns="http://www.w3.org/2000/svg" viewBox="0 0 860 260" width="860" height="260" role="img" aria-label="Studio Dentistico Annicchiarico">
<title>Studio Dentistico Annicchiarico</title>

<path d="M188.88 64.60A88.00 88.00 0 1 0 188.88 195.40" fill="none" stroke="#4CB0B8" stroke-width="24.00" stroke-linecap="round"/><circle cx="130.00" cy="130.00" r="60.00" fill="#39868D"/><path transform="translate(93.84 87.88) scale(0.7232)" d="M50 14C42 4 28 2 18 8C6 16 4 34 8 50C11 62 16 70 18 82C20 96 22 108 30 110C38 112 40 100 42 90C44 80 46 74 50 74C54 74 56 80 58 90C60 100 62 112 70 110C78 108 80 96 82 82C84 70 89 62 92 50C96 34 94 16 82 8C72 2 58 4 50 14Z" fill="#FFFFFF"/><path fill="#2B6A70" d="M282.52 92.36Q279.96 92.36 278.22 91.38Q276.47 90.41 275.26 88.79L276.61 87.69Q277.72 89.15 279.12 89.96Q280.52 90.77 282.57 90.77Q285.01 90.77 286.32 89.61Q287.63 88.45 287.63 86.39Q287.63 85.1 287.12 84.29Q286.62 83.48 285.67 83.01Q284.71 82.54 283.38 82.26L281.52 81.87Q279.55 81.45 278.29 80.69Q277.04 79.94 276.43 78.82Q275.83 77.7 275.83 76.25Q275.83 74.42 276.67 73.18Q277.51 71.95 279.04 71.32Q280.56 70.7 282.55 70.7Q284.9 70.7 286.52 71.54Q288.15 72.38 289.19 73.9L287.82 74.89Q286.96 73.65 285.66 72.97Q284.37 72.29 282.45 72.29Q280.2 72.29 278.9 73.27Q277.61 74.25 277.61 76.2Q277.61 77.44 278.14 78.21Q278.67 78.99 279.63 79.45Q280.59 79.91 281.9 80.18L283.76 80.57Q285.85 81 287.08 81.8Q288.31 82.61 288.86 83.73Q289.4 84.86 289.4 86.29Q289.4 88.2 288.57 89.55Q287.73 90.91 286.19 91.63Q284.65 92.36 282.52 92.36ZM315.86 72.65H308.85V92H307.05V72.65H300.04V71.06H315.86ZM327.63 71.06H329.43V84Q329.43 86.32 329.94 87.81Q330.44 89.31 331.63 90.03Q332.82 90.75 334.87 90.75Q336.92 90.75 338.1 90.03Q339.29 89.31 339.8 87.81Q340.31 86.32 340.31 84V71.06H342.11V83.61Q342.11 86.66 341.41 88.6Q340.71 90.55 339.1 91.45Q337.5 92.36 334.81 92.36Q332.13 92.36 330.56 91.45Q328.99 90.55 328.31 88.6Q327.63 86.66 327.63 83.61ZM356.26 92V71.06H362.92Q365.6 71.06 367.5 72.22Q369.4 73.38 370.4 75.71Q371.39 78.03 371.39 81.53Q371.39 85.02 370.4 87.35Q369.4 89.68 367.5 90.84Q365.6 92 362.92 92ZM358.05 90.41H362.94Q365.02 90.41 366.47 89.5Q367.92 88.59 368.69 86.92Q369.46 85.24 369.46 82.92V80.14Q369.46 77.81 368.69 76.13Q367.92 74.45 366.47 73.55Q365.02 72.65 362.94 72.65H358.05ZM391.45 92H383.56V90.5H386.61V72.56H383.56V71.06H391.45V72.56H388.4V90.5H391.45ZM412.2 92.36Q409.53 92.36 407.61 91.13Q405.69 89.89 404.66 87.48Q403.62 85.08 403.62 81.53Q403.62 77.98 404.66 75.57Q405.69 73.15 407.61 71.93Q409.53 70.7 412.2 70.7Q414.86 70.7 416.78 71.93Q418.7 73.15 419.74 75.57Q420.77 77.98 420.77 81.53Q420.77 85.08 419.74 87.48Q418.7 89.89 416.78 91.13Q414.86 92.36 412.2 92.36ZM412.2 90.75Q414.21 90.75 415.7 89.81Q417.18 88.87 418.01 87.1Q418.84 85.33 418.84 82.84V80.22Q418.84 77.72 418.01 75.95Q417.18 74.17 415.7 73.24Q414.21 72.31 412.2 72.31Q410.21 72.31 408.71 73.24Q407.21 74.17 406.38 75.95Q405.55 77.72 405.55 80.22V82.84Q405.55 85.33 406.38 87.1Q407.21 88.87 408.71 89.81Q410.21 90.75 412.2 90.75ZM449.5 92V71.06H456.16Q458.84 71.06 460.74 72.22Q462.64 73.38 463.64 75.71Q464.63 78.03 464.63 81.53Q464.63 85.02 463.64 87.35Q462.64 89.68 460.74 90.84Q458.84 92 456.16 92ZM451.29 90.41H456.18Q458.26 90.41 459.71 89.5Q461.16 88.59 461.93 86.92Q462.7 85.24 462.7 82.92V80.14Q462.7 77.81 461.93 76.13Q461.16 74.45 459.71 73.55Q458.26 72.65 456.18 72.65H451.29ZM490.13 92H477.88V71.06H490.13V72.65H479.67V80.6H489.62V82.19H479.67V90.41H490.13ZM516.45 92 508.12 78.34 505.33 73.52H505.24V78.34V92H503.5V71.06H505.65L513.99 84.72L516.76 89.54H516.85V84.72V71.06H518.6V92ZM546.38 72.65H539.37V92H537.57V72.65H530.56V71.06H546.38ZM565.15 92H557.26V90.5H560.31V72.56H557.26V71.06H565.15V72.56H562.1V90.5H565.15ZM583.96 92.36Q581.4 92.36 579.66 91.38Q577.91 90.41 576.7 88.79L578.05 87.69Q579.16 89.15 580.56 89.96Q581.96 90.77 584.01 90.77Q586.45 90.77 587.76 89.61Q589.07 88.45 589.07 86.39Q589.07 85.1 588.56 84.29Q588.06 83.48 587.11 83.01Q586.15 82.54 584.82 82.26L582.96 81.87Q580.99 81.45 579.73 80.69Q578.48 79.94 577.87 78.82Q577.27 77.7 577.27 76.25Q577.27 74.42 578.11 73.18Q578.95 71.95 580.48 71.32Q582 70.7 583.99 70.7Q586.34 70.7 587.96 71.54Q589.59 72.38 590.63 73.9L589.26 74.89Q588.4 73.65 587.1 72.97Q585.81 72.29 583.89 72.29Q581.64 72.29 580.34 73.27Q579.05 74.25 579.05 76.2Q579.05 77.44 579.58 78.21Q580.11 78.99 581.07 79.45Q582.03 79.91 583.34 80.18L585.2 80.57Q587.29 81 588.52 81.8Q589.75 82.61 590.3 83.73Q590.84 84.86 590.84 86.29Q590.84 88.2 590.01 89.55Q589.17 90.91 587.63 91.63Q586.09 92.36 583.96 92.36ZM617.3 72.65H610.29V92H608.49V72.65H601.48V71.06H617.3ZM636.07 92H628.18V90.5H631.23V72.56H628.18V71.06H636.07V72.56H633.02V90.5H636.07ZM656.41 92.36Q653.84 92.36 652.01 91.15Q650.18 89.93 649.21 87.54Q648.24 85.15 648.24 81.6Q648.24 78.06 649.21 75.62Q650.18 73.19 652.01 71.95Q653.84 70.7 656.41 70.7Q658.91 70.7 660.65 71.89Q662.4 73.09 663.33 75.17L661.87 76.03Q661.17 74.32 659.78 73.31Q658.4 72.31 656.41 72.31Q653.49 72.31 651.83 74.44Q650.17 76.56 650.17 80.41V82.8Q650.17 86.64 651.83 88.7Q653.49 90.75 656.41 90.75Q658.5 90.75 659.93 89.68Q661.36 88.61 662.03 86.81L663.48 87.67Q662.56 89.8 660.75 91.08Q658.94 92.36 656.41 92.36ZM683.73 92.36Q681.06 92.36 679.14 91.13Q677.22 89.89 676.19 87.48Q675.15 85.08 675.15 81.53Q675.15 77.98 676.19 75.57Q677.22 73.15 679.14 71.93Q681.06 70.7 683.73 70.7Q686.39 70.7 688.31 71.93Q690.23 73.15 691.27 75.57Q692.3 77.98 692.3 81.53Q692.3 85.08 691.27 87.48Q690.23 89.89 688.31 91.13Q686.39 92.36 683.73 92.36ZM683.73 90.75Q685.74 90.75 687.23 89.81Q688.71 88.87 689.54 87.1Q690.37 85.33 690.37 82.84V80.22Q690.37 77.72 689.54 75.95Q688.71 74.17 687.23 73.24Q685.74 72.31 683.73 72.31Q681.74 72.31 680.24 73.24Q678.74 74.17 677.91 75.95Q677.08 77.72 677.08 80.22V82.84Q677.08 85.33 677.91 87.1Q678.74 88.87 680.24 89.81Q681.74 90.75 683.73 90.75Z"/><path fill="#17393C" d="M314.84 148H307.29L303.36 135.91H286.65L282.72 148H275.39L290.62 103.33H299.69ZM301.58 129.67 297.17 116.43 295.12 109.96H294.8L292.77 116.43L288.37 129.67ZM352.18 148 337.61 123.36 332.7 113.85H332.51V123.52V148H325.59V103.33H333.69L348.26 127.97L353.17 137.48H353.36V127.8V103.33H360.28V148ZM401.72 148 387.15 123.36 382.24 113.85H382.05V123.52V148H375.13V103.33H383.22L397.8 127.97L402.71 137.48H402.9V127.8V103.33H409.81V148ZM442.06 148H422.72V142.13H428.77V109.2H422.72V103.33H442.06V109.2H436.01V142.13H442.06ZM471.73 148.77Q465.93 148.77 461.72 146.19Q457.52 143.61 455.25 138.54Q452.98 133.46 452.98 125.95Q452.98 118.43 455.25 113.22Q457.52 108 461.72 105.28Q465.93 102.56 471.73 102.56Q477.54 102.56 481.48 105.12Q485.42 107.68 487.66 112.65L481.59 116.01Q480.47 112.83 478.06 110.92Q475.64 109 471.73 109Q466.6 109 463.64 112.59Q460.68 116.18 460.68 122.37V129.25Q460.68 135.41 463.64 138.87Q466.6 142.33 471.73 142.33Q475.72 142.33 478.28 140.23Q480.85 138.13 482.06 134.87L487.9 138.37Q485.63 143.21 481.59 145.99Q477.54 148.77 471.73 148.77ZM516.15 148.77Q510.35 148.77 506.14 146.19Q501.93 143.61 499.66 138.54Q497.4 133.46 497.4 125.95Q497.4 118.43 499.66 113.22Q501.93 108 506.14 105.28Q510.35 102.56 516.15 102.56Q521.96 102.56 525.9 105.12Q529.83 107.68 532.08 112.65L526.01 116.01Q524.88 112.83 522.47 110.92Q520.06 109 516.15 109Q511.02 109 508.06 112.59Q505.1 116.18 505.1 122.37V129.25Q505.1 135.41 508.06 138.87Q511.02 142.33 516.15 142.33Q520.13 142.33 522.7 140.23Q525.27 138.13 526.47 134.87L532.32 138.37Q530.04 143.21 526 145.99Q521.96 148.77 516.15 148.77ZM571.28 148V128.6H551.07V148H543.83V103.33H551.07V122.22H571.28V103.33H578.52V148ZM610.76 148H591.42V142.13H597.48V109.2H591.42V103.33H610.76V109.2H604.71V142.13H610.76ZM659.03 148H651.48L647.55 135.91H630.84L626.91 148H619.58L634.82 103.33H643.88ZM645.77 129.67 641.37 116.43 639.31 109.96H638.99L636.96 116.43L632.56 129.67ZM677.02 130V148H669.79V103.33H689.03Q693.04 103.33 695.92 104.94Q698.8 106.55 700.37 109.53Q701.94 112.51 701.94 116.68Q701.94 121.38 699.76 124.68Q697.58 127.97 693.34 129.22L702.95 148H694.85L685.98 130ZM677.02 123.86H688.51Q690.35 123.86 691.65 123.22Q692.94 122.58 693.65 121.33Q694.35 120.09 694.35 118.31V115.2Q694.35 113.4 693.65 112.16Q692.94 110.93 691.65 110.29Q690.35 109.65 688.51 109.65H677.02ZM732.94 148H713.6V142.13H719.65V109.2H713.6V103.33H732.94V109.2H726.89V142.13H732.94ZM762.61 148.77Q756.81 148.77 752.6 146.19Q748.4 143.61 746.13 138.54Q743.86 133.46 743.86 125.95Q743.86 118.43 746.13 113.22Q748.4 108 752.6 105.28Q756.81 102.56 762.61 102.56Q768.42 102.56 772.36 105.12Q776.3 107.68 778.54 112.65L772.47 116.01Q771.35 112.83 768.94 110.92Q766.52 109 762.61 109Q757.48 109 754.52 112.59Q751.56 116.18 751.56 122.37V129.25Q751.56 135.41 754.52 138.87Q757.48 142.33 762.61 142.33Q766.6 142.33 769.16 140.23Q771.73 138.13 772.94 134.87L778.78 138.37Q776.51 143.21 772.47 145.99Q768.42 148.77 762.61 148.77ZM807.52 148.77Q801.71 148.77 797.37 146.13Q793.03 143.48 790.65 138.33Q788.28 133.18 788.28 125.66Q788.28 118.12 790.65 112.98Q793.03 107.84 797.37 105.2Q801.71 102.56 807.52 102.56Q813.36 102.56 817.69 105.2Q822.01 107.84 824.39 112.98Q826.77 118.12 826.77 125.66Q826.77 133.18 824.39 138.33Q822.01 143.48 817.69 146.13Q813.36 148.77 807.52 148.77ZM807.52 142.33Q811.02 142.33 813.59 140.72Q816.17 139.12 817.62 136.18Q819.07 133.25 819.07 129.21V122.12Q819.07 118.06 817.62 115.11Q816.17 112.17 813.59 110.59Q811.02 109 807.52 109Q804.09 109 801.48 110.59Q798.88 112.17 797.43 115.11Q795.98 118.06 795.98 122.12V129.21Q795.98 133.25 797.43 136.18Q798.88 139.12 801.48 140.72Q804.09 142.33 807.52 142.33Z"/><rect x="274.00" y="178.00" width="56" height="3" fill="#4CB0B8"/>
</svg>
